<?xml version="1.0" encoding="utf-8"?>
<!-- Generator: Adobe Illustrator 22.0.0, SVG Export Plug-In . SVG Version: 6.00 Build 0)  -->
<svg version="1.1" xmlns="http://www.w3.org/2000/svg" xmlns:xlink="http://www.w3.org/1999/xlink" x="0px" y="0px"
	 viewBox="0 0 1366 768" style="enable-background:new 0 0 1366 768;" xml:space="preserve">
<style type="text/css">
	.st0{fill:url(#SVGID_1_);}
	.st1{fill:#FF6666;}
	.st2{fill:#1AB3D6;}
	.st3{fill:#FFCE00;}
	.st4{fill:#15ED8A;}
	.st5{fill:#FFFFFF;}
</style>
<g id="Layer_6">
	<linearGradient id="SVGID_1_" gradientUnits="userSpaceOnUse" x1="441.9513" y1="426.5" x2="766.9513" y2="426.5">
		<stop  offset="0" style="stop-color:#003E57"/>
		<stop  offset="1" style="stop-color:#00030C"/>
	</linearGradient>
	<rect x="442" y="264" class="st0" width="325" height="325"/>
</g>
<g id="Layer_1">
</g>
<g id="Layer_3">
</g>
<g id="Layer_5">
	<g>
		<rect x="481.3" y="348.4" class="st1" width="48.6" height="179.9"/>
		<rect x="547.2" y="324" class="st2" width="48.6" height="204.2"/>
		<rect x="613.1" y="299.6" class="st3" width="48.6" height="228.6"/>
		<rect x="679" y="275.3" class="st4" width="48.6" height="253"/>
		<rect x="481.3" y="400" class="st5" width="48.6" height="128.2"/>
		<rect x="547.2" y="447.1" class="st5" width="48.6" height="81.2"/>
		<rect x="613.1" y="405.8" class="st5" width="48.6" height="122.5"/>
		<rect x="679" y="375.7" class="st5" width="48.6" height="152.6"/>
	</g>
	<g>
		<path class="st5" d="M466.8,565.5l-8.4-19.6h6l7.1,17H468l7.2-17h5.5l-8.4,19.6H466.8z"/>
		<path class="st5" d="M481.9,565.5v-19.6h5.5v19.6H481.9z"/>
		<path class="st5" d="M498.2,565.9c-1.6,0-3.2-0.2-4.7-0.6s-2.7-0.9-3.6-1.5l1.8-4.1c0.9,0.6,1.9,1,3,1.4c1.1,0.4,2.3,0.5,3.4,0.5
			c0.8,0,1.4-0.1,1.9-0.2c0.5-0.1,0.8-0.3,1-0.6c0.2-0.2,0.3-0.5,0.3-0.9c0-0.4-0.2-0.8-0.6-1c-0.4-0.3-0.9-0.5-1.6-0.6
			c-0.7-0.2-1.4-0.3-2.2-0.5c-0.8-0.2-1.6-0.4-2.4-0.6s-1.5-0.6-2.2-1c-0.7-0.4-1.2-1-1.6-1.7c-0.4-0.7-0.6-1.6-0.6-2.6
			c0-1.2,0.3-2.2,1-3.2s1.6-1.7,2.9-2.3c1.3-0.6,2.9-0.9,4.8-0.9c1.3,0,2.6,0.1,3.8,0.4c1.2,0.3,2.3,0.7,3.3,1.3l-1.7,4.1
			c-0.9-0.5-1.9-0.9-2.8-1.1c-0.9-0.2-1.8-0.4-2.7-0.4c-0.8,0-1.4,0.1-1.8,0.3c-0.5,0.2-0.8,0.4-1,0.6c-0.2,0.3-0.3,0.5-0.3,0.8
			c0,0.4,0.2,0.8,0.6,1.1c0.4,0.3,0.9,0.5,1.6,0.6c0.7,0.2,1.4,0.3,2.2,0.5s1.6,0.4,2.4,0.6c0.8,0.3,1.5,0.6,2.2,1
			c0.7,0.4,1.2,1,1.6,1.7c0.4,0.7,0.6,1.5,0.6,2.6c0,1.1-0.3,2.2-1,3.1c-0.6,1-1.6,1.7-2.9,2.3C501.8,565.6,500.1,565.9,498.2,565.9
			z"/>
		<path class="st5" d="M509.5,565.5v-19.6h5.5v19.6H509.5z"/>
		<path class="st5" d="M519,565.5v-19.6h10c2.6,0,4.5,0.5,5.8,1.4c1.3,1,1.9,2.2,1.9,3.7c0,1-0.3,1.9-0.8,2.7
			c-0.5,0.8-1.3,1.4-2.2,1.8c-1,0.4-2.1,0.6-3.4,0.6l0.5-1.3c1.4,0,2.6,0.2,3.6,0.6c1,0.4,1.8,1,2.4,1.8s0.9,1.8,0.9,2.9
			c0,1.7-0.7,3-2.1,3.9c-1.4,1-3.4,1.4-6,1.4H519z M524.4,561.5h4.6c1,0,1.7-0.2,2.2-0.5c0.5-0.3,0.7-0.8,0.7-1.5s-0.2-1.2-0.7-1.5
			c-0.5-0.3-1.2-0.5-2.2-0.5h-5v-3.8h4.2c0.9,0,1.6-0.2,2.1-0.5c0.5-0.3,0.7-0.8,0.7-1.4c0-0.7-0.2-1.1-0.7-1.4
			c-0.5-0.3-1.2-0.5-2.1-0.5h-3.8V561.5z"/>
		<path class="st5" d="M540.5,565.5v-19.6h5.5v15.2h9.3v4.4H540.5z"/>
		<path class="st5" d="M563,561.2h10.2v4.3h-15.7v-19.6h15.3v4.3H563V561.2z M562.6,553.5h9.1v4.1h-9.1V553.5z"/>
		<path class="st5" d="M584.5,565.5v-19.6h4.6l8.1,13.3h-2.4l7.9-13.3h4.6l0,19.6h-5.1l-0.1-11.8h0.9l-5.9,9.9h-2.5l-6.1-9.9h1.1
			v11.8H584.5z"/>
		<path class="st5" d="M608.9,565.5l8.7-19.6h5.5l8.7,19.6h-5.8l-6.8-16.9h2.2l-6.8,16.9H608.9z M613.6,561.6l1.4-4.1h9.6l1.4,4.1
			H613.6z"/>
		<path class="st5" d="M641.8,565.9c-2.9,0-5.1-0.8-6.8-2.4c-1.6-1.6-2.4-3.8-2.4-6.7v-10.9h5.5v10.7c0,1.7,0.3,2.9,1,3.6
			c0.7,0.7,1.6,1.1,2.7,1.1c1.2,0,2.1-0.4,2.7-1.1c0.6-0.7,1-1.9,1-3.6v-10.7h5.5v10.9c0,2.9-0.8,5.1-2.4,6.7
			C647,565.1,644.7,565.9,641.8,565.9z"/>
		<path class="st5" d="M654.8,565.5v-19.6h8.9c1.8,0,3.3,0.3,4.6,0.9c1.3,0.6,2.3,1.4,3,2.5c0.7,1.1,1,2.4,1,3.8
			c0,1.5-0.4,2.8-1,3.9c-0.7,1.1-1.7,1.9-3,2.5s-2.9,0.9-4.6,0.9h-5.9l2.5-2.4v7.6H654.8z M660.4,558.6l-2.5-2.6h5.5
			c1.2,0,2-0.3,2.6-0.8s0.9-1.2,0.9-2.1c0-0.9-0.3-1.6-0.9-2.1s-1.4-0.8-2.6-0.8h-5.5l2.5-2.5V558.6z M666.9,565.5l-4.9-7.1h5.9
			l4.9,7.1H666.9z"/>
		<path class="st5" d="M675.6,565.5v-19.6h5.5v19.6H675.6z"/>
		<path class="st5" d="M689.2,565.5v-15.2h-6v-4.4h17.6v4.4h-6v15.2H689.2z"/>
		<path class="st5" d="M702.8,565.5v-19.6h5.5v19.6H702.8z"/>
		<path class="st5" d="M721.3,565.9c-2.9,0-5.1-0.8-6.8-2.4c-1.6-1.6-2.4-3.8-2.4-6.7v-10.9h5.5v10.7c0,1.7,0.3,2.9,1,3.6
			s1.6,1.1,2.7,1.1s2.1-0.4,2.7-1.1c0.6-0.7,1-1.9,1-3.6v-10.7h5.5v10.9c0,2.9-0.8,5.1-2.5,6.7C726.5,565.1,724.2,565.9,721.3,565.9
			z"/>
		<path class="st5" d="M741.2,565.9c-1.6,0-3.2-0.2-4.7-0.6c-1.5-0.4-2.7-0.9-3.6-1.5l1.8-4.1c0.9,0.6,1.9,1,3,1.4
			c1.1,0.4,2.3,0.5,3.4,0.5c0.8,0,1.4-0.1,1.9-0.2c0.5-0.1,0.8-0.3,1-0.6c0.2-0.2,0.3-0.5,0.3-0.9c0-0.4-0.2-0.8-0.6-1
			c-0.4-0.3-0.9-0.5-1.6-0.6c-0.7-0.2-1.4-0.3-2.2-0.5s-1.6-0.4-2.4-0.6c-0.8-0.3-1.5-0.6-2.2-1s-1.2-1-1.6-1.7s-0.6-1.6-0.6-2.6
			c0-1.2,0.3-2.2,1-3.2c0.6-1,1.6-1.7,2.9-2.3c1.3-0.6,2.9-0.9,4.8-0.9c1.3,0,2.6,0.1,3.8,0.4c1.2,0.3,2.3,0.7,3.3,1.3l-1.7,4.1
			c-0.9-0.5-1.9-0.9-2.8-1.1c-0.9-0.2-1.8-0.4-2.7-0.4c-0.8,0-1.4,0.1-1.8,0.3s-0.8,0.4-1,0.6c-0.2,0.3-0.3,0.5-0.3,0.8
			c0,0.4,0.2,0.8,0.6,1.1c0.4,0.3,0.9,0.5,1.6,0.6c0.7,0.2,1.4,0.3,2.2,0.5c0.8,0.2,1.6,0.4,2.4,0.6s1.5,0.6,2.2,1
			c0.7,0.4,1.2,1,1.6,1.7c0.4,0.7,0.6,1.5,0.6,2.6c0,1.1-0.3,2.2-1,3.1c-0.6,1-1.6,1.7-2.9,2.3C744.7,565.6,743.1,565.9,741.2,565.9
			z"/>
	</g>
</g>
<g id="Layer_4">
</g>
<g id="Layer_2">
</g>
</svg>
