<svg id="Layer_1" data-name="Layer 1" xmlns="http://www.w3.org/2000/svg" viewBox="0 0 319.84 322.61"><defs><style>.cls-1{fill:#00273a;}.cls-2{fill:#fff;}.cls-3,.cls-4,.cls-5,.cls-6{fill:none;stroke-miterlimit:10;stroke-width:2px;}.cls-3{stroke:#f66;}.cls-4{stroke:#1ab3d6;}.cls-5{stroke:#ffce00;}.cls-6{stroke:#0db766;}</style></defs><title>logo</title><rect class="cls-1" x="-2.41" y="0.12" width="325.2" height="325.2"/><path class="cls-2" d="M36.51,272.27l-8.64,23.55H22.14L13.5,272.27h5.06L25,291l6.44-18.72Z"/><path class="cls-2" d="M39.66,274.11a2.79,2.79,0,0,1,0-3.95,3.12,3.12,0,0,1,4.15,0,2.76,2.76,0,0,1,0,3.95,3.12,3.12,0,0,1-4.15,0Zm4.4,3v18.69H39.34V277.13Z"/><path class="cls-2" d="M51.76,295.29a7.29,7.29,0,0,1-2.89-2.24,5.6,5.6,0,0,1-1.16-3.14h4.75a2.59,2.59,0,0,0,1.07,1.79,3.68,3.68,0,0,0,2.31.71,3.54,3.54,0,0,0,2.1-.54,1.62,1.62,0,0,0,.76-1.38,1.46,1.46,0,0,0-.92-1.37,17.16,17.16,0,0,0-3-1,25.5,25.5,0,0,1-3.42-1.05,5.93,5.93,0,0,1-2.29-1.65,4.47,4.47,0,0,1-1-3,4.82,4.82,0,0,1,.89-2.83,6,6,0,0,1,2.56-2,9.57,9.57,0,0,1,3.93-.74,8,8,0,0,1,5.33,1.66A6.18,6.18,0,0,1,63.05,283H58.53a2.42,2.42,0,0,0-.92-1.77,3.44,3.44,0,0,0-2.21-.66,3.55,3.55,0,0,0-2,.47,1.52,1.52,0,0,0-.69,1.32,1.55,1.55,0,0,0,1,1.43,14.63,14.63,0,0,0,2.93,1,24,24,0,0,1,3.34,1,5.92,5.92,0,0,1,2.28,1.67,4.57,4.57,0,0,1,1,3,4.93,4.93,0,0,1-.89,2.9,5.91,5.91,0,0,1-2.56,2,9.66,9.66,0,0,1-3.9.73A9.83,9.83,0,0,1,51.76,295.29Z"/><path class="cls-2" d="M67.42,274.11a2.79,2.79,0,0,1,0-3.95,3.12,3.12,0,0,1,4.15,0,2.76,2.76,0,0,1,0,3.95,3.12,3.12,0,0,1-4.15,0Zm4.41,3v18.69H67.1V277.13Z"/><path class="cls-2" d="M83.72,277.67a7.72,7.72,0,0,1,3.66-.84A8.14,8.14,0,0,1,91.71,278a8.25,8.25,0,0,1,3.07,3.35,10.82,10.82,0,0,1,1.13,5,11,11,0,0,1-1.13,5.08,8.51,8.51,0,0,1-3.07,3.42,8,8,0,0,1-4.33,1.22,7.72,7.72,0,0,1-3.66-.83,7.06,7.06,0,0,1-2.52-2.14v2.67H76.48v-25H81.2v9A6.75,6.75,0,0,1,83.72,277.67Zm6.67,5.82a4.78,4.78,0,0,0-1.82-1.88,4.94,4.94,0,0,0-2.44-.64,4.67,4.67,0,0,0-2.41.66,4.88,4.88,0,0,0-1.83,1.91,6.59,6.59,0,0,0,0,5.87,4.86,4.86,0,0,0,1.83,1.9,4.75,4.75,0,0,0,4.85,0,4.92,4.92,0,0,0,1.82-1.93,6,6,0,0,0,.7-3A5.86,5.86,0,0,0,90.39,283.49Z"/><path class="cls-2" d="M104.07,270.85v25H99.35v-25Z"/><path class="cls-2" d="M126,287.89H112.3a4.63,4.63,0,0,0,1.42,3.17,4.38,4.38,0,0,0,3.07,1.15,3.86,3.86,0,0,0,3.74-2.26h5.1a8.51,8.51,0,0,1-3.11,4.43,9,9,0,0,1-5.63,1.74,9.73,9.73,0,0,1-4.84-1.2,8.45,8.45,0,0,1-3.34-3.39,10.37,10.37,0,0,1-1.2-5.06,10.65,10.65,0,0,1,1.18-5.09A8.21,8.21,0,0,1,112,278a10.64,10.64,0,0,1,9.66,0,8,8,0,0,1,3.27,3.26,9.8,9.8,0,0,1,1.17,4.84A11.13,11.13,0,0,1,126,287.89Zm-4.75-3.17a3.75,3.75,0,0,0-1.32-2.92,4.66,4.66,0,0,0-3.14-1.1,4.28,4.28,0,0,0-3,1.07,4.63,4.63,0,0,0-1.46,3Z"/><path class="cls-2" d="M163.24,272.27v23.55h-4.73V280.5l-6.3,15.32h-3.58l-6.34-15.32v15.32h-4.72V272.27h5.36l7.49,17.51,7.49-17.51Z"/><path class="cls-2" d="M167.81,281.38a8.07,8.07,0,0,1,7.4-4.55,7.66,7.66,0,0,1,3.66.84,7.49,7.49,0,0,1,2.51,2.12v-2.66h4.76v18.69h-4.76v-2.74a6.89,6.89,0,0,1-2.51,2.18,7.73,7.73,0,0,1-3.69.86,8,8,0,0,1-4.31-1.22,8.49,8.49,0,0,1-3.06-3.42,10.89,10.89,0,0,1-1.13-5.08A10.73,10.73,0,0,1,167.81,281.38Zm12.9,2.14a4.8,4.8,0,0,0-1.82-1.89,4.79,4.79,0,0,0-6.7,1.86,5.85,5.85,0,0,0-.69,2.91,6.11,6.11,0,0,0,.69,3A5,5,0,0,0,174,291.3a4.64,4.64,0,0,0,2.41.67,4.89,4.89,0,0,0,2.47-.66,4.8,4.8,0,0,0,1.82-1.89,6.83,6.83,0,0,0,0-5.9Z"/><path class="cls-2" d="M208.4,277.13v18.69h-4.75v-2.37a6.32,6.32,0,0,1-2.38,1.91,7.4,7.4,0,0,1-3.19.69,7.9,7.9,0,0,1-3.88-.93,6.53,6.53,0,0,1-2.65-2.73,9,9,0,0,1-1-4.3v-11h4.72v10.29a4.81,4.81,0,0,0,1.12,3.42,3.92,3.92,0,0,0,3,1.2,4,4,0,0,0,3.07-1.2,4.86,4.86,0,0,0,1.12-3.42V277.13Z"/><path class="cls-2" d="M220.16,277.7a6.59,6.59,0,0,1,3.35-.84v5h-1.25a4.8,4.8,0,0,0-3.35,1c-.76.7-1.13,1.91-1.13,3.65v9.31h-4.72V277.13h4.72V280A6.64,6.64,0,0,1,220.16,277.7Z"/><path class="cls-2" d="M227,274.11a2.79,2.79,0,0,1,0-3.95,3.12,3.12,0,0,1,4.15,0,2.76,2.76,0,0,1,0,3.95,3.12,3.12,0,0,1-4.15,0Zm4.41,3v18.69h-4.73V277.13Z"/><path class="cls-2" d="M241.56,281v9a1.78,1.78,0,0,0,.45,1.36,2.22,2.22,0,0,0,1.54.43h2.19v4h-3q-6,0-6-5.81v-9h-2.22v-3.88h2.22v-4.62h4.76v4.62h4.18V281Z"/><path class="cls-2" d="M249.47,274.11a2.76,2.76,0,0,1,0-3.95,3.12,3.12,0,0,1,4.15,0,2.79,2.79,0,0,1,0,3.95,3.12,3.12,0,0,1-4.15,0Zm4.4,3v18.69h-4.72V277.13Z"/><path class="cls-2" d="M276.17,277.13v18.69h-4.76v-2.37a6.25,6.25,0,0,1-2.38,1.91,7.4,7.4,0,0,1-3.19.69,7.92,7.92,0,0,1-3.88-.93,6.51,6.51,0,0,1-2.64-2.73,9,9,0,0,1-1-4.3v-11h4.72v10.29a4.85,4.85,0,0,0,1.11,3.42,4,4,0,0,0,3,1.2,4,4,0,0,0,3.07-1.2,4.85,4.85,0,0,0,1.11-3.42V277.13Z"/><path class="cls-2" d="M283.86,295.29a7.29,7.29,0,0,1-2.89-2.24,5.67,5.67,0,0,1-1.16-3.14h4.75a2.59,2.59,0,0,0,1.07,1.79,3.7,3.7,0,0,0,2.31.71,3.6,3.6,0,0,0,2.11-.54,1.64,1.64,0,0,0,.75-1.38,1.45,1.45,0,0,0-.92-1.37,17,17,0,0,0-2.95-1,25.24,25.24,0,0,1-3.43-1.05,5.93,5.93,0,0,1-2.29-1.65,4.47,4.47,0,0,1-1-3,4.82,4.82,0,0,1,.89-2.83,6,6,0,0,1,2.56-2,9.57,9.57,0,0,1,3.93-.74,8,8,0,0,1,5.33,1.66,6.23,6.23,0,0,1,2.2,4.51h-4.52a2.47,2.47,0,0,0-.93-1.77,3.44,3.44,0,0,0-2.21-.66,3.5,3.5,0,0,0-2,.47,1.51,1.51,0,0,0-.7,1.32,1.55,1.55,0,0,0,.95,1.43,14.63,14.63,0,0,0,2.93,1,23.62,23.62,0,0,1,3.34,1,5.92,5.92,0,0,1,2.28,1.67,4.57,4.57,0,0,1,1,3,4.93,4.93,0,0,1-.89,2.9,5.91,5.91,0,0,1-2.56,2,9.62,9.62,0,0,1-3.9.73A9.83,9.83,0,0,1,283.86,295.29Z"/><rect class="cls-2" x="66.48" y="105.13" width="29.58" height="135.55"/><rect class="cls-2" x="119.47" y="83.77" width="29.58" height="156.91"/><rect class="cls-2" x="171.96" y="61.38" width="29.58" height="179.3"/><rect class="cls-2" x="224.34" y="105.13" width="29.58" height="135.55"/><line class="cls-3" x1="66.48" y1="172.91" x2="96.05" y2="172.91"/><line class="cls-4" x1="119.47" y1="161.91" x2="149.04" y2="161.91"/><line class="cls-5" x1="171.96" y1="172.91" x2="201.54" y2="172.91"/><line class="cls-6" x1="224.34" y1="161.91" x2="253.91" y2="161.91"/></svg>